<svg width="852" height="393" viewBox="0 0 852 393" fill="none" xmlns="http://www.w3.org/2000/svg">
<g clip-path="url(#clip0_2074_6839)">
<rect width="393" height="852" transform="matrix(0 -1 1 0 0 393)" fill="#C1E1E5"/>
<path fill-rule="evenodd" clip-rule="evenodd" d="M649 190.193C645.291 191.047 642.224 192.758 640.385 194.951C639.125 193.09 636.823 191.845 634.191 191.845C630.208 191.845 626.978 194.699 626.978 198.219L626.978 198.239C624.228 197.042 620.92 196.344 617.361 196.344C607.801 196.344 600.051 201.381 600.051 207.593C600.051 208.436 600.193 209.258 600.464 210.048C597.289 210.498 594.616 211.658 593.012 213.209H649V190.193Z" fill="white"/>
<path fill-rule="evenodd" clip-rule="evenodd" d="M268.512 253.581H380.305C379.6 248.45 373.657 244.444 366.43 244.444C365.609 244.444 364.804 244.496 364.022 244.595C364.024 244.545 364.026 244.495 364.026 244.445C364.026 241.078 359.505 238.349 353.928 238.349C350.552 238.349 347.562 239.349 345.729 240.885C345.269 236.073 338.351 232.252 329.885 232.252C323.824 232.252 318.556 234.211 315.884 237.09C314.624 235.41 312.322 234.285 309.69 234.285C305.707 234.285 302.477 236.862 302.477 240.042L302.477 240.06C299.727 238.979 296.419 238.349 292.861 238.349C283.3 238.349 275.55 242.898 275.55 248.509C275.55 249.27 275.693 250.012 275.963 250.726C272.788 251.132 270.115 252.18 268.512 253.581Z" fill="white"/>
<path d="M331.453 233.325C335.071 233.593 342.612 235.391 343.831 240.434" stroke="white" stroke-width="2" stroke-linecap="round"/>
<path d="M355.256 239.227C357.542 239.584 362.226 241.185 362.683 244.726" stroke="white" stroke-width="2" stroke-linecap="round"/>
<path fill-rule="evenodd" clip-rule="evenodd" d="M-116.564 156.329H121.023C119.526 145.424 106.895 136.91 91.5353 136.91C89.7906 136.91 88.0811 137.02 86.4192 137.231C86.4234 137.125 86.4256 137.018 86.4256 136.911C86.4256 129.756 76.8175 123.956 64.9653 123.956C57.79 123.956 51.4372 126.082 47.5408 129.347C46.5632 119.12 31.8618 111 13.8693 111C0.986971 111 -10.2083 115.162 -15.8872 121.281C-18.5642 117.709 -23.4576 115.318 -29.0506 115.318C-37.5164 115.318 -44.3793 120.797 -44.3793 127.554L-44.3792 127.592C-50.2249 125.295 -57.2546 123.956 -64.8173 123.956C-85.1353 123.956 -101.606 133.623 -101.606 145.548C-101.606 147.167 -101.303 148.743 -100.728 150.26C-107.477 151.124 -113.157 153.351 -116.564 156.329Z" fill="white"/>
<path fill-rule="evenodd" clip-rule="evenodd" d="M308 99.3285H545.587C544.091 88.4244 531.46 79.9103 516.1 79.9103C514.355 79.9103 512.646 80.0202 510.984 80.2309C510.988 80.1247 510.99 80.0181 510.99 79.9113C510.99 72.7562 501.382 66.9559 489.53 66.9559C482.354 66.9559 476.002 69.0818 472.105 72.3471C471.128 62.1197 456.426 54 438.434 54C425.551 54 414.356 58.1625 408.677 64.2808C406 60.7095 401.107 58.3185 395.514 58.3185C387.048 58.3185 380.185 63.7965 380.185 70.5541L380.185 70.5918C374.34 68.2952 367.31 66.9559 359.747 66.9559C339.429 66.9559 322.958 76.6231 322.958 88.5482C322.958 90.1665 323.262 91.7433 323.837 93.2599C317.088 94.1243 311.408 96.3506 308 99.3285Z" fill="white"/>
<path fill-rule="evenodd" clip-rule="evenodd" d="M735 156.329H972.587C971.091 145.424 958.46 136.91 943.1 136.91C941.355 136.91 939.646 137.02 937.984 137.231C937.988 137.125 937.99 137.018 937.99 136.911C937.99 129.756 928.382 123.956 916.53 123.956C909.354 123.956 903.002 126.082 899.105 129.347C898.128 119.12 883.426 111 865.434 111C852.551 111 841.356 115.162 835.677 121.281C833 117.709 828.107 115.318 822.514 115.318C814.048 115.318 807.185 120.797 807.185 127.554L807.185 127.592C801.34 125.295 794.31 123.956 786.747 123.956C766.429 123.956 749.958 133.623 749.958 145.548C749.958 147.167 750.262 148.743 750.837 150.26C744.088 151.124 738.408 153.351 735 156.329Z" fill="white"/>
<path fill-rule="evenodd" clip-rule="evenodd" d="M649 213.209H705.185C704.481 207.529 698.538 203.093 691.311 203.093C690.49 203.093 689.686 203.151 688.904 203.26C688.906 203.205 688.907 203.149 688.907 203.094C688.907 199.366 684.386 196.344 678.809 196.344C675.433 196.344 672.444 197.452 670.611 199.153C670.15 193.825 663.233 189.595 654.767 189.595C652.733 189.595 650.788 189.839 649 190.285V213.209Z" fill="white"/>
<path d="M656.335 190.783C659.953 191.08 667.494 193.07 668.713 198.653" stroke="white" stroke-width="2" stroke-linecap="round"/>
<path d="M680.139 197.317C682.424 197.713 687.109 199.485 687.566 203.405" stroke="white" stroke-width="2" stroke-linecap="round"/>
</g>
<defs>
<clipPath id="clip0_2074_6839">
<rect width="393" height="852" fill="white" transform="matrix(0 -1 1 0 0 393)"/>
</clipPath>
</defs>
</svg>
