<svg width="105" height="105" viewBox="0 0 105 105" fill="none" xmlns="http://www.w3.org/2000/svg">
<path d="M34.0727 29.5987C44.1754 36.8766 49.9983 47.2003 51.6469 51.4525C50.2792 52.4452 44.7739 55.2465 33.6943 58.5101C19.8447 62.5895 16.2529 54.2116 15.4618 49.8172C15.031 47.4238 17.0121 43.3076 18.5298 40.7208C19.8033 25.4871 29.9905 27.4115 34.0727 29.5987Z" fill="#85A771"/>
<path d="M73.5863 32.9642C66.6307 43.2915 56.4958 49.4372 52.2979 51.2191C51.2625 49.8834 48.2889 44.4692 44.6774 33.498C40.1631 19.7841 48.4235 15.9297 52.7907 15.0004C55.1694 14.4943 59.346 16.3445 61.9794 17.7799C77.2457 18.5722 75.6436 28.815 73.5863 32.9642Z" fill="#85A771"/>
<path d="M72.641 71.7389C61.8136 65.5907 54.9133 55.9538 52.8166 51.9038C54.0695 50.7696 59.2413 47.392 69.9052 42.9548C83.2352 37.4083 87.708 45.3509 88.9675 49.6346C89.6534 51.9678 88.1269 56.2732 86.8965 59.0084C87.2701 74.2907 76.935 73.474 72.641 71.7389Z" fill="#85A771"/>
<path d="M30.8585 70.4279C37.8575 60.1533 48.0146 54.0756 52.2182 52.3211C53.2469 53.6618 56.1938 59.0888 59.7527 70.0711C64.2012 83.7989 55.928 87.5991 51.5591 88.5008C49.1795 88.9919 45.0139 87.118 42.3887 85.668C27.1351 84.7832 28.7833 74.5604 30.8585 70.4279Z" fill="#85A771"/>
<path d="M53.7931 101.635C67.1656 87.1234 60.6427 66.269 55.7097 57.6558L59.0194 61.9042L59.6054 62.657C66.4744 88.5044 62.2027 97.994 59.0684 101.112C57.1684 103.442 54.7599 102.432 53.7931 101.635Z" fill="#85A771"/>
<path d="M64.9319 20.5049C66.7674 20.3997 72.6569 21.2022 73.1484 26.6932" stroke="white" stroke-width="2" stroke-linecap="round"/>
<path d="M48.9329 19.0767C50.4165 17.805 55.8295 14.6817 59.3868 18.974" stroke="white" stroke-width="2" stroke-linecap="round"/>
<path d="M84.4143 61.27C84.8102 63.0654 84.955 69.0075 79.6122 70.3665" stroke="white" stroke-width="2" stroke-linecap="round"/>
<path d="M83.2786 45.2471C84.7701 46.5095 88.7149 51.3566 85.0433 55.5514" stroke="white" stroke-width="2" stroke-linecap="round"/>
</svg>
