<svg width="48" height="48" viewBox="0 0 48 48" fill="none" xmlns="http://www.w3.org/2000/svg">
<mask id="mask0_2074_9165" style="mask-type:luminance" maskUnits="userSpaceOnUse" x="2" y="2" width="44" height="44">
<path d="M18.284 43.1711C14.9761 42.1835 11.9802 40.3562 9.588 37.8671C10.3577 36.9543 10.8375 35.8325 10.966 34.6454C11.0945 33.4583 10.8659 32.2598 10.3094 31.2034C9.75298 30.1469 8.89395 29.2805 7.84229 28.7151C6.79063 28.1496 5.59417 27.9108 4.406 28.0291C4.13532 26.7032 3.9993 25.3534 4 24.0001C4 21.9101 4.32 19.8941 4.916 18.0001H5C6.01976 18.0005 7.02277 17.7409 7.91434 17.2459C8.8059 16.7509 9.55659 16.0368 10.0955 15.1711C10.6345 14.3054 10.9439 13.3166 10.9945 12.2981C11.0452 11.2796 10.8354 10.265 10.385 9.35014C12.7296 7.16697 15.5651 5.57997 18.652 4.72314C19.1544 5.70955 19.9198 6.53774 20.8637 7.1161C21.8076 7.69445 22.893 8.00042 24 8.00014C25.107 8.00042 26.1924 7.69445 27.1363 7.1161C28.0802 6.53774 28.8456 5.70955 29.348 4.72314C32.4349 5.57997 35.2704 7.16697 37.615 9.35014C37.1613 10.2715 36.9517 11.2938 37.0062 12.3193C37.0608 13.3448 37.3776 14.3392 37.9264 15.2072C38.4752 16.0752 39.2376 16.7878 40.1407 17.2768C41.0437 17.7659 42.0572 18.0149 43.084 18.0001C43.693 19.9419 44.0018 21.9652 44 24.0001C44 25.3801 43.86 26.7281 43.594 28.0301C42.4058 27.9118 41.2094 28.1506 40.1577 28.7161C39.1061 29.2815 38.247 30.1479 37.6906 31.2044C37.1341 32.2608 36.9055 33.4593 37.034 34.6464C37.1625 35.8335 37.6423 36.9553 38.412 37.8681C36.0197 40.3568 33.0238 42.1838 29.716 43.1711C29.3276 41.9604 28.5647 40.9043 27.5374 40.1551C26.5102 39.4058 25.2715 39.0021 24 39.0021C22.7285 39.0021 21.4898 39.4058 20.4626 40.1551C19.4353 40.9043 18.6725 41.9604 18.284 43.1711Z" fill="white" stroke="white" stroke-width="4" stroke-linejoin="round"/>
<path d="M24 31C24.9193 31 25.8295 30.8189 26.6788 30.4672C27.5281 30.1154 28.2997 29.5998 28.9497 28.9497C29.5998 28.2997 30.1154 27.5281 30.4672 26.6788C30.8189 25.8295 31 24.9193 31 24C31 23.0807 30.8189 22.1705 30.4672 21.3212C30.1154 20.4719 29.5998 19.7003 28.9497 19.0503C28.2997 18.4002 27.5281 17.8846 26.6788 17.5328C25.8295 17.1811 24.9193 17 24 17C22.1435 17 20.363 17.7375 19.0503 19.0503C17.7375 20.363 17 22.1435 17 24C17 25.8565 17.7375 27.637 19.0503 28.9497C20.363 30.2625 22.1435 31 24 31Z" fill="black" stroke="black" stroke-width="4" stroke-linejoin="round"/>
</mask>
<g mask="url(#mask0_2074_9165)">
<path d="M0 0H48V48H0V0Z" fill="white"/>
</g>
</svg>
