<svg width="195" height="89" viewBox="0 0 195 89" fill="none" xmlns="http://www.w3.org/2000/svg">
<path fill-rule="evenodd" clip-rule="evenodd" d="M135.812 2.41879C140.608 2.45036 145.38 2.8511 150.151 3.34175C150.61 3.38899 151.071 3.43591 151.532 3.48294C159.272 4.2713 167.309 5.08991 174.223 7.93458C182.392 11.2957 187.371 19.3593 190.62 27.5735C196.135 41.5131 195.553 50.1347 191.57 56.5281C175.517 82.2949 137.535 85.964 107.188 86.7941L51.3961 88.3202C41.8343 88.5817 32.0169 88.2195 23.3135 84.2511C-16.7956 65.9632 2.4693 17.235 32.5 9.49999C59.3935 2.573 115.842 2.28732 135.812 2.41879ZM80.9665 21.5699C80.6047 22.1191 80.3762 22.7451 80.2992 23.3982C79.8995 26.6843 79.1607 34.1363 79.1607 44.1988C79.1607 54.2671 79.9024 61.7219 80.2992 65.0052C80.6384 67.8141 83.5537 69.5017 86.1584 68.3891C89.1829 67.1011 95.9449 64.0363 104.742 58.9591C113.531 53.8818 119.566 49.5607 122.194 47.5856C124.462 45.8807 124.456 42.5112 122.191 40.8121C119.537 38.8254 113.428 34.4468 104.742 29.4328C96.0599 24.4217 89.2174 21.3196 86.1642 20.0143C85.5602 19.7542 84.9038 19.6387 84.2474 19.677C83.5909 19.7153 82.9524 19.9064 82.3828 20.235C81.8132 20.5636 81.3282 21.0208 80.9665 21.5699Z" fill="white"/>
</svg>
