<svg width="852" height="393" viewBox="0 0 852 393" fill="none" xmlns="http://www.w3.org/2000/svg">
<g clip-path="url(#clip0_2016_12710)">
<path d="M346.331 157.69C333.69 154.002 326.58 129.249 332.374 113.973C338.168 98.6984 345.606 100.779 341.591 95.0119C335.232 71.5729 347.743 61.0392 347.743 61.0392C356.539 51.5557 366.406 51.5574 372.224 51.5584L372.404 51.5585C361.192 62.9056 359.304 84.4806 356.301 95.0119C353.604 102.089 352.35 102.385 349.98 107.652C349.453 110.023 348.4 106.599 350.77 123.717C353.14 140.835 359.074 129.144 365.029 132.408C377.382 139.177 391.55 152.326 397.004 139.591L407.189 155.085C392.489 179.99 367.136 141.889 346.331 157.69Z" fill="#94B15F"/>
<path d="M357.6 95.8064C359.725 87.2213 360.98 67.5671 374.774 51.5585L385.637 55.4288C381.417 70.0348 374.973 70.2035 378 85.9742C386.681 88.7627 390.686 89.1446 391.892 80.0001C391.365 76.0498 392.583 70.7285 387.5 57.5002L394.789 62.8821C400.546 67.7913 405.5 66.0002 406.376 81.0536C404 93.5002 403.029 90.4213 395.898 102.866C379.833 104.87 371.545 102.911 357.6 95.8064Z" fill="#94B15F"/>
<path d="M393.553 106.926C393.584 106.933 393.586 106.939 393.56 106.944L394.141 108.393C394.702 111.868 393.587 118.19 392.096 118.86C385.372 118.797 378.312 113.724 373.5 115.5C370.08 117.437 372.352 123.648 376.696 125.035C383.474 126.024 386.953 124.203 393.272 121.793C397.277 127.854 396.285 131.588 394.752 138.224C382.355 148.846 371.195 125.147 354.928 130.599C351 106.926 351.5 114.5 356.339 98.699C368.766 106.66 392.814 107.1 393.56 106.944L393.553 106.926Z" fill="#94B15F"/>
<path d="M408.017 150.781L400.721 138.953C396.149 126.06 394.605 118.88 398.444 106.385C409.119 92.6173 412.283 52.4972 412.96 44.2802C413.638 36.0632 415.292 36.0198 423.193 32.3329C436.981 28.5072 449.677 17.8451 439.822 55.7712C434.47 76.3714 427.59 87.6979 422.56 93.6249C436.459 81.6431 443.373 74.2399 447.986 46.5538C449.134 39.6693 450.742 36.6976 445 30.0002C455.165 33.1536 456.28 35.0858 461.784 39.179C475.6 41.6703 484.502 42.8475 480.848 48.6589L438.389 94.9081L475.763 108.864L500 116C496.715 125.984 490.442 129.052 479.5 136.5C479.5 136.5 431.162 108.02 420.501 108.322C409.84 108.624 410.626 111.999 415.57 117.961C420.514 123.923 454.169 134.263 454.169 134.263C437.653 142.974 428.868 148.571 408.017 150.781Z" fill="#A1BB72"/>
<path d="M451 36.5002C452.833 37.1669 456.9 39.2002 458.5 42.0002C460.5 41.6669 466.7 42.2002 475.5 47.0002" stroke="white" stroke-width="2" stroke-linecap="round"/>
<path d="M474.058 103.176C461.839 102.272 455.917 102.661 444.857 89.4814C451.567 83.1928 460.841 75.8145 465.856 68.1495C466.078 78.857 466.223 84.8584 473.23 95.0116C474.602 94.087 481.526 93.9242 478.008 90.9271C470.03 81.627 470.599 75.2924 470.108 64.3283C477.256 58.0078 478.651 53.4644 484.067 46.5546C505.532 58.216 505.244 70.1082 512.065 84.7525C516.179 92.2164 512.065 101.069 501.447 104.975L479.325 108.706C466.157 105.019 474.058 105.546 478.008 103.966L496.665 93.5002L496.665 90.9271L474.058 103.176Z" fill="#A1BB72"/>
<path d="M500 68.0002C504.5 85.0002 512.5 89.5002 508 96.5002" stroke="white" stroke-width="2" stroke-linecap="round"/>
<path d="M386.098 219.578C371.608 213.278 357.919 213.522 354.994 192.717C351.063 178.828 367.62 156.496 369.504 157.691C373.634 160.311 375.001 162.047 380.003 164.946C384.791 164.657 387.275 184.969 391.112 188.539C391.038 185.739 388.2 168.325 385.831 165.593C397.946 167.963 406.802 163.029 416.5 154.5C416.446 164.71 412.507 177.374 419.684 189.799L447.986 210.624C449.157 215.957 444.866 219.864 439.822 221.949C440.541 219.324 440.582 217.762 437.979 214.311C430.977 207.792 416.865 196.927 410.5 193.5C405.974 191.064 405.586 194.297 405.586 194.297C408.621 198.005 435.5 214.5 434 219C432.5 222 393.695 203.199 386.098 201C386.098 201 382.638 201.537 385 203C396.295 209.998 419.843 221.258 434 223C437.676 226.426 416.12 232.507 405.586 230.113C393.998 227.479 387.415 220.151 386.098 219.578Z" fill="#85A64B"/>
<path d="M421.004 185.297C418.785 186.042 417.777 154.401 420.587 153.118C423.398 151.835 447.198 141.611 457.152 135.336C465.553 136.509 468.306 136.231 474.411 138.665C455.548 146.221 427.678 162.226 424.5 163.5C423.376 164.235 423.523 165.668 425.682 166.738L471.5 142.647C473.779 143.805 476.228 146.52 475.627 148.5L427.916 172.159C426.36 174.403 426.23 176.392 428.82 175.069L478.437 149.5C480.721 152.018 481.575 153.604 481.476 157.078C457.343 167.773 439.293 180.203 421.004 185.297Z" fill="#85A64B"/>
<path d="M468 165.269C452.197 174.296 443.349 179.14 427.671 185.696L425.5 186.5C422.357 188.341 423.112 188.325 424.857 190.218C428.99 194.03 446.087 206.679 450.75 207.25C452.056 203.71 451.809 197.635 451.809 195.529C460.337 202.322 487.748 217.339 495.648 223.444C501.442 227.921 516.453 235.032 525.671 233.452C534.888 231.872 526.761 230.941 534.888 223.444C511.186 221.864 470.482 207.643 455.355 184.204C461.55 182.812 465.083 178.823 469.602 175.169C470.437 170.037 469.893 168.686 468 165.269Z" fill="#7B9D68"/>
<path d="M476.164 201.269C464.833 195.47 464.577 192.051 459.046 184.701C464.334 183.134 469.207 181.194 473.569 176.988C473.567 171.973 473.187 169.181 470.477 164.325L484.898 157.124C488.968 159.154 491.175 161.974 493.707 166.311C487.911 173.343 483.885 176.822 476.164 182.709C474 187 475.5 187.5 478.808 185.102C483.14 180.081 491.222 174.871 491.5 171.5C496.964 167.917 495.796 170.631 495.818 175.16C494.812 180.975 489.827 185.954 486.1 191.258C485.545 194.915 486.153 196.292 490.007 193.89C495.576 187.928 498.172 172.431 498.5 174.028C498.828 175.624 510.137 180.098 517.775 185.102C515.085 191.106 512.746 194.049 506.451 198.246C502.5 202.723 487.496 207.067 476.164 201.269Z" fill="#7B9D68"/>
<path d="M499.137 169.289C490.842 157.617 484.618 153.322 474.762 143.88C473.896 142.511 474.42 141.952 477.205 141.481L482.783 144.068L481.808 138.634C486.495 136.877 490.629 133.931 494.035 130.825C494.151 130.72 495.493 133.853 496.142 135.042C491.481 140.572 497.932 143.252 498.249 142.942C500.077 145.062 516 134 516.5 131C516.5 131 516.207 125.158 514.05 126.088C513.913 125.56 503.451 133.814 498.249 134.778C496.12 135.173 494.344 131.016 494.299 130.828C493.772 130.565 496.781 128.139 496.932 127.98C501.635 123.02 504.344 118.45 504.344 118.45C504.344 118.45 503.441 112.921 502.764 108.97C504.179 103.865 526.528 115.408 525.939 120.558C525.939 120.558 531.74 137.221 530.68 142.942C530.68 142.942 517.403 139.834 513.298 143.75C509.194 147.665 505.955 147.484 501.076 148.65C505.182 148.526 507.247 149.869 511.882 146.587C520.415 143.779 530.39 144.39 531.469 148.65C530.584 152.815 528.572 158.602 525.939 162.958C520.816 162.565 510.021 160.641 505.532 154.808C501.358 154.536 500.56 154.932 501.376 156.475C508.072 164.138 516.317 166.095 521.989 166.645C521.309 171.244 521.082 176.522 518.038 181.129C511.89 180.289 503.143 174.262 499.137 169.289Z" fill="#7B9D68"/>
</g>
<defs>
<clipPath id="clip0_2016_12710">
<rect width="393" height="852" fill="white" transform="matrix(0 -1 1 0 0 393)"/>
</clipPath>
</defs>
</svg>
