<svg width="852" height="393" viewBox="0 0 852 393" fill="none" xmlns="http://www.w3.org/2000/svg">
<g clip-path="url(#clip0_2074_6065)">
<rect y="360" width="852" height="33" fill="#C7C7C7"/>
<path d="M43.7562 295.624C44.9544 290.914 55.0969 289.245 60.0183 289C70.2891 289 77.3503 299.01 74.1407 309.021C71.573 317.029 62.2294 319.325 57.8785 319.473C37.5509 311.229 42.2583 301.513 43.7562 295.624Z" fill="#94B15F"/>
<path d="M58.814 305.37L58.814 360.019" stroke="#3C559E" stroke-linecap="round"/>
<path d="M58.6892 314.31C57.1908 314.1 54.1938 312.698 54.1938 308.77" stroke="#3C559E" stroke-linecap="round"/>
<path d="M68.6792 294.918C70.0528 295.925 74.0487 300.584 72.4253 307.762" stroke="white" stroke-width="2" stroke-linecap="round"/>
<path d="M278.661 295.624C277.463 290.914 267.32 289.245 262.399 289C252.128 289 245.067 299.01 248.276 309.021C250.844 317.029 260.188 319.325 264.538 319.473C284.866 311.229 280.159 301.513 278.661 295.624Z" fill="#94B15F"/>
<path d="M264.103 305.37L264.103 360.019" stroke="#3C559E" stroke-linecap="round"/>
<path d="M263.977 314.31C262.479 314.101 259.482 312.699 259.482 308.77" stroke="#3C559E" stroke-linecap="round"/>
<path d="M273.218 293.785C274.592 294.793 278.588 299.452 276.964 306.629" stroke="white" stroke-width="2" stroke-linecap="round"/>
<path d="M175.018 298.253C173.82 291.673 163.677 289.343 158.756 289C148.485 289 141.424 302.982 144.633 316.963C147.201 328.148 156.545 331.356 160.895 331.561C181.223 320.047 176.516 306.477 175.018 298.253Z" fill="#94B15F"/>
<path d="M169.575 295.296C170.948 296.703 174.944 303.211 173.321 313.235" stroke="white" stroke-width="2" stroke-linecap="round"/>
<path d="M160.459 305.37L160.459 360.019" stroke="#3C559E" stroke-linecap="round"/>
<path d="M160.21 315.066C158.837 315.107 156.089 313.907 156.089 308.77" stroke="#3C559E" stroke-linecap="round"/>
<path d="M160.459 322.368C162.915 321.781 167.677 318.692 167.078 311.036" stroke="#3C559E" stroke-linecap="round"/>
<path d="M350.69 298.252C351.889 291.673 362.031 289.343 366.952 289C377.223 289 384.284 302.981 381.075 316.963C378.507 328.148 369.163 331.355 364.813 331.561C344.485 320.047 349.192 306.477 350.69 298.252Z" fill="#94B15F"/>
<path d="M374.864 295.296C376.237 296.703 380.233 303.21 378.61 313.235" stroke="white" stroke-width="2" stroke-linecap="round"/>
<path d="M365.749 305.37L365.749 360.019" stroke="#3C559E" stroke-linecap="round"/>
<path d="M365.499 315.066C364.125 315.107 361.378 313.907 361.378 308.77" stroke="#3C559E" stroke-linecap="round"/>
<path d="M365.749 322.368C368.204 321.781 372.966 318.692 372.367 311.036" stroke="#3C559E" stroke-linecap="round"/>
<path fill-rule="evenodd" clip-rule="evenodd" d="M57.1781 360.524C57.1781 360.524 57.1781 360.524 57.178 360.523H14.9455C14.9454 360.524 14.9454 360.524 14.9454 360.524H0.819644C0.295005 359.757 0 358.894 0 357.98C0 355.304 2.52914 353.057 5.94645 352.431C5.76892 351.76 5.67529 351.064 5.67529 350.349C5.67529 345.081 10.7572 340.81 17.0261 340.81C19.3596 340.81 21.5286 341.402 23.3322 342.417L23.3322 342.4C23.3322 339.415 25.4497 336.995 28.0617 336.995C29.7874 336.995 31.2972 338.051 32.1231 339.629C33.8753 336.926 37.3295 335.087 41.3042 335.087C46.8554 335.087 51.3912 338.674 51.6931 343.192C52.8953 341.749 54.8553 340.81 57.0691 340.81C60.726 340.81 63.6904 343.373 63.6904 346.533C63.6904 346.581 63.6898 346.628 63.6884 346.675C64.2012 346.582 64.7287 346.534 65.267 346.534C70.3169 346.534 74.4107 350.804 74.4107 356.072C74.4107 357.68 74.0294 359.195 73.3559 360.524H57.1781Z" fill="#85A771"/>
<path d="M42.3315 336.095C44.7041 336.347 49.649 338.034 50.4482 342.768" stroke="white" stroke-width="2" stroke-linecap="round"/>
<path d="M57.9404 341.635C59.4389 341.971 62.5107 343.473 62.8104 346.797" stroke="white" stroke-width="2" stroke-linecap="round"/>
<path d="M69.0542 348.812C70.4694 349.484 73.2998 351.96 73.2998 356.494" stroke="white" stroke-width="2" stroke-linecap="round"/>
<path fill-rule="evenodd" clip-rule="evenodd" d="M108.139 360.524C108.139 360.524 108.139 360.524 108.139 360.523H150.372C150.372 360.524 150.372 360.524 150.372 360.524H164.498C165.022 359.757 165.317 358.894 165.317 357.98C165.317 355.304 162.788 353.057 159.37 352.43C159.548 351.76 159.642 351.064 159.642 350.349C159.642 345.081 154.56 340.81 148.291 340.81C145.958 340.81 143.789 341.402 141.985 342.416L141.985 342.4C141.985 339.415 139.868 336.995 137.256 336.995C135.53 336.995 134.02 338.051 133.194 339.629C131.442 336.926 127.988 335.087 124.013 335.087C118.462 335.087 113.926 338.674 113.624 343.192C112.422 341.749 110.462 340.81 108.248 340.81C104.591 340.81 101.627 343.373 101.627 346.533C101.627 346.581 101.628 346.628 101.629 346.675C101.116 346.582 100.588 346.534 100.05 346.534C95.0001 346.534 90.9063 350.804 90.9063 356.072C90.9063 357.68 91.2877 359.195 91.9611 360.524H108.139Z" fill="#85A771"/>
<path d="M137.358 338.11C138.38 338.281 140.511 339.427 140.855 342.643" stroke="white" stroke-width="2" stroke-linecap="round"/>
<path d="M149.846 342.139C152.382 342.597 157.58 344.65 158.087 349.19" stroke="white" stroke-width="2" stroke-linecap="round"/>
<path d="M159.585 353.724C161.084 354.098 164.081 355.478 164.081 358.005" stroke="white" stroke-width="2" stroke-linecap="round"/>
<path fill-rule="evenodd" clip-rule="evenodd" d="M284.108 360.523C284.108 360.523 284.108 360.523 284.108 360.522H321.811C321.811 360.523 321.811 360.523 321.811 360.523H334.423C334.891 359.839 335.154 359.068 335.154 358.252C335.154 355.863 332.896 353.857 329.846 353.298C330.004 352.7 330.088 352.078 330.088 351.44C330.088 346.737 325.551 342.924 319.954 342.924C317.871 342.924 315.934 343.452 314.324 344.358L314.324 344.343C314.324 341.678 312.434 339.517 310.102 339.517C308.561 339.517 307.213 340.46 306.476 341.869C304.911 339.456 301.827 337.814 298.279 337.814C293.323 337.814 289.274 341.017 289.004 345.05C287.931 343.762 286.181 342.924 284.205 342.924C280.94 342.924 278.293 345.211 278.293 348.033C278.293 348.076 278.294 348.118 278.295 348.16C277.837 348.077 277.367 348.033 276.886 348.033C272.378 348.033 268.723 351.846 268.723 356.549C268.723 357.984 269.063 359.336 269.664 360.523H284.108Z" fill="#85A771"/>
<path d="M310.194 340.512C311.106 340.665 313.008 341.688 313.315 344.559" stroke="white" stroke-width="2" stroke-linecap="round"/>
<path d="M321.342 344.109C323.606 344.519 328.247 346.351 328.7 350.405" stroke="white" stroke-width="2" stroke-linecap="round"/>
<path d="M330.038 354.452C331.375 354.786 334.051 356.018 334.051 358.274" stroke="white" stroke-width="2" stroke-linecap="round"/>
<path fill-rule="evenodd" clip-rule="evenodd" d="M242.487 360.524C242.487 360.524 242.487 360.524 242.487 360.523H200.255C200.255 360.524 200.254 360.524 200.254 360.524H186.129C185.604 359.757 185.309 358.894 185.309 357.98C185.309 355.304 187.838 353.057 191.256 352.431C191.078 351.76 190.984 351.064 190.984 350.349C190.984 345.081 196.066 340.81 202.335 340.81C204.668 340.81 206.837 341.402 208.641 342.416L208.641 342.4C208.641 339.415 210.758 336.995 213.37 336.995C215.096 336.995 216.606 338.051 217.432 339.629C219.184 336.926 222.638 335.087 226.613 335.087C232.164 335.087 236.7 338.674 237.002 343.191C238.204 341.749 240.164 340.81 242.378 340.81C246.035 340.81 248.999 343.373 248.999 346.533C248.999 346.581 248.998 346.628 248.997 346.675C249.51 346.582 250.037 346.534 250.576 346.534C255.626 346.534 259.719 350.804 259.719 356.072C259.719 357.68 259.338 359.195 258.665 360.524H242.487Z" fill="#85A771"/>
<path d="M227.64 336.095C230.013 336.347 234.958 338.034 235.757 342.768" stroke="white" stroke-width="2" stroke-linecap="round"/>
<path d="M243.25 341.635C244.748 341.971 247.82 343.473 248.119 346.797" stroke="white" stroke-width="2" stroke-linecap="round"/>
<path d="M254.363 348.812C255.778 349.484 258.609 351.96 258.609 356.494" stroke="white" stroke-width="2" stroke-linecap="round"/>
<path fill-rule="evenodd" clip-rule="evenodd" d="M399.075 360.524C399.075 360.524 399.075 360.524 399.075 360.523H356.843C356.843 360.524 356.843 360.524 356.843 360.524H342.717C342.192 359.757 341.897 358.894 341.897 357.98C341.897 355.304 344.426 353.057 347.843 352.431C347.666 351.761 347.572 351.064 347.572 350.349C347.572 345.081 352.654 340.81 358.923 340.81C361.257 340.81 363.426 341.402 365.23 342.417L365.23 342.4C365.23 339.415 367.347 336.995 369.959 336.995C371.685 336.995 373.195 338.051 374.021 339.629C375.773 336.926 379.227 335.087 383.202 335.087C388.753 335.087 393.289 338.674 393.591 343.192C394.793 341.75 396.753 340.81 398.967 340.81C402.624 340.81 405.588 343.373 405.588 346.533C405.588 346.581 405.587 346.628 405.586 346.675C406.099 346.582 406.626 346.534 407.164 346.534C412.214 346.534 416.308 350.804 416.308 356.072C416.308 357.68 415.927 359.195 415.253 360.524H399.075Z" fill="#85A771"/>
<path d="M384.229 336.095C386.602 336.347 391.546 338.034 392.346 342.768" stroke="white" stroke-width="2" stroke-linecap="round"/>
<path d="M399.838 341.635C401.336 341.971 404.408 343.473 404.708 346.797" stroke="white" stroke-width="2" stroke-linecap="round"/>
<path d="M410.952 348.812C412.367 349.484 415.197 351.96 415.197 356.494" stroke="white" stroke-width="2" stroke-linecap="round"/>
<path d="M63.2216 354.658C63.7407 357.786 67.7637 359.871 69.7102 360.523H94.3669C95.0158 357.395 86.5806 342.148 83.3363 342.929C80.7409 343.555 83.12 349.445 84.634 352.312C80.5246 346.448 71.7866 335.579 69.7102 339.02C67.6339 342.46 74.4686 349.315 78.1454 352.312C74.6848 349.967 67.3743 345.51 65.8171 346.448C64.2598 347.386 68.1962 352.312 70.3591 354.658C67.7637 353.355 62.7026 351.531 63.2216 354.658Z" fill="#ACC57F"/>
<path d="M70.4272 339.998C72.1754 338.865 77.7947 344.657 83.4139 352.464" stroke="white" stroke-width="2" stroke-linecap="round"/>
<path d="M83.2891 344.154C84.4129 343.944 87.8094 346.269 92.4047 357.249" stroke="white" stroke-width="2" stroke-linecap="round"/>
<path d="M248.532 354.658C249.051 357.786 253.074 359.871 255.02 360.523H279.677C280.326 357.395 271.891 342.148 268.646 342.929C266.051 343.555 268.43 349.445 269.944 352.312C265.835 346.448 257.097 335.579 255.02 339.02C252.944 342.46 259.779 349.315 263.455 352.312C259.995 349.967 252.684 345.51 251.127 346.448C249.57 347.386 253.506 352.312 255.669 354.658C253.074 353.355 248.013 351.531 248.532 354.658Z" fill="#ACC57F"/>
<path d="M255.736 339.998C257.485 338.865 263.104 344.657 268.723 352.464" stroke="white" stroke-width="2" stroke-linecap="round"/>
<path d="M268.599 344.154C269.722 343.944 273.119 346.269 277.714 357.249" stroke="white" stroke-width="2" stroke-linecap="round"/>
<path d="M26.4993 356.924C26.8731 358.843 29.7696 360.123 31.1711 360.523H48.924C49.3911 358.603 43.3178 349.247 40.9819 349.727C39.1132 350.111 40.8262 353.725 41.9163 355.485C38.9575 351.886 32.6661 345.216 31.1711 347.328C29.6762 349.439 34.5971 353.645 37.2445 355.485C34.7529 354.045 29.4893 351.31 28.3681 351.886C27.2468 352.462 30.0811 355.485 31.6383 356.924C29.7696 356.124 26.1256 355.005 26.4993 356.924Z" fill="#ACC57F"/>
<path d="M31.687 347.928C32.9457 347.232 36.9915 350.787 41.0374 355.578" stroke="white" stroke-width="2" stroke-linecap="round"/>
<path d="M40.9478 350.478C41.7569 350.349 44.2024 351.776 47.511 358.514" stroke="white" stroke-width="2" stroke-linecap="round"/>
<path d="M213.306 356.924C213.68 358.843 216.577 360.123 217.978 360.523H235.731C236.198 358.603 230.125 349.247 227.789 349.727C225.92 350.111 227.633 353.725 228.723 355.485C225.765 351.886 219.473 345.216 217.978 347.328C216.483 349.439 221.404 353.645 224.052 355.485C221.56 354.045 216.296 351.31 215.175 351.886C214.054 352.462 216.888 355.485 218.445 356.924C216.577 356.124 212.933 355.005 213.306 356.924Z" fill="#ACC57F"/>
<path d="M218.495 347.928C219.754 347.232 223.8 350.787 227.845 355.578" stroke="white" stroke-width="2" stroke-linecap="round"/>
<path d="M227.755 350.478C228.564 350.349 231.01 351.776 234.318 358.514" stroke="white" stroke-width="2" stroke-linecap="round"/>
<path d="M324.197 356.324C324.633 358.563 328.012 360.056 329.648 360.523H350.359C350.904 358.283 343.819 347.368 341.093 347.927C338.913 348.375 340.912 352.592 342.184 354.645C338.732 350.446 331.392 342.665 329.648 345.128C327.903 347.591 333.645 352.499 336.733 354.645C333.826 352.965 327.685 349.775 326.377 350.446C325.069 351.118 328.376 354.645 330.193 356.324C328.012 355.391 323.761 354.085 324.197 356.324Z" fill="#ACC57F"/>
<path d="M330.25 345.828C331.718 345.017 336.438 349.164 341.158 354.753" stroke="white" stroke-width="2" stroke-linecap="round"/>
<path d="M341.054 348.803C341.998 348.653 344.851 350.317 348.711 358.178" stroke="white" stroke-width="2" stroke-linecap="round"/>
<path d="M120.653 354.591C121.026 357.755 123.923 359.864 125.324 360.523H143.077C143.544 357.359 137.471 341.939 135.135 342.729C133.267 343.362 134.98 349.319 136.07 352.219C133.111 346.288 126.819 335.296 125.324 338.775C123.829 342.255 128.75 349.188 131.398 352.219C128.906 349.847 123.643 345.339 122.521 346.288C121.4 347.237 124.234 352.219 125.792 354.591C123.923 353.273 120.279 351.428 120.653 354.591Z" fill="#ACC57F"/>
<path d="M125.84 339.765C127.099 338.618 131.145 344.477 135.191 352.372" stroke="white" stroke-width="2" stroke-linecap="round"/>
<path d="M135.101 343.967C135.91 343.755 138.356 346.106 141.664 357.211" stroke="white" stroke-width="2" stroke-linecap="round"/>
<path d="M155.626 354.658C156.146 357.786 160.168 359.871 162.115 360.523H186.772C187.421 357.395 178.985 342.148 175.741 342.929C173.146 343.555 175.525 349.445 177.039 352.312C172.929 346.448 164.191 335.579 162.115 339.02C160.039 342.46 166.873 349.315 170.55 352.312C167.09 349.967 159.779 345.51 158.222 346.448C156.665 347.386 160.601 352.312 162.764 354.658C160.168 353.355 155.107 351.531 155.626 354.658Z" fill="#ACC57F"/>
<path d="M162.832 339.998C164.58 338.865 170.199 344.657 175.819 352.464" stroke="white" stroke-width="2" stroke-linecap="round"/>
<path d="M175.693 344.154C176.817 343.944 180.214 346.269 184.809 357.249" stroke="white" stroke-width="2" stroke-linecap="round"/>
<path d="M394.381 354.658C394.9 357.786 398.923 359.871 400.869 360.523H425.526C426.175 357.395 417.74 342.148 414.495 342.929C411.9 343.555 414.279 349.445 415.793 352.312C411.684 346.448 402.946 335.579 400.869 339.02C398.793 342.46 405.628 349.315 409.305 352.312C405.844 349.967 398.534 345.51 396.976 346.448C395.419 347.386 399.355 352.312 401.518 354.658C398.923 353.355 393.862 351.531 394.381 354.658Z" fill="#ACC57F"/>
<path d="M401.586 339.998C403.334 338.865 408.953 344.657 414.573 352.464" stroke="white" stroke-width="2" stroke-linecap="round"/>
<path d="M414.448 344.154C415.572 343.944 418.968 346.269 423.563 357.249" stroke="white" stroke-width="2" stroke-linecap="round"/>
<rect y="356.241" width="14.3877" height="6.84362" rx="3.42181" fill="#E2E2E2"/>
<path d="M9.36572 357.062C12.4876 357.062 13.5734 356.788 13.5734 358.978" stroke="white" stroke-width="2" stroke-linecap="round"/>
<path d="M0.814637 361.169C0.814637 362.413 1.51519 362.257 3.5293 362.257H10.7231" stroke="#3C559E" stroke-width="2" stroke-linecap="round"/>
<path d="M15.2021 359.663C15.2021 357.773 16.7341 356.241 18.624 356.241H26.168C28.0578 356.241 29.5898 357.773 29.5898 359.663V359.663C29.5898 361.553 28.0578 363.085 26.168 363.085H18.624C16.7341 363.085 15.2021 361.553 15.2021 359.663V359.663Z" fill="#DBDBDB"/>
<path d="M24.5679 357.062C27.6897 357.062 28.7756 356.788 28.7756 358.978" stroke="white" stroke-width="2" stroke-linecap="round"/>
<path d="M16.0168 361.169C16.0168 362.413 16.7173 362.257 18.7314 362.257H25.9253" stroke="#3C559E" stroke-width="2" stroke-linecap="round"/>
<rect x="30.4038" y="356.241" width="14.3877" height="6.84362" rx="3.42181" fill="#E2E2E2"/>
<path d="M39.7695 357.062C42.8914 357.062 43.9773 356.788 43.9773 358.978" stroke="white" stroke-width="2" stroke-linecap="round"/>
<path d="M31.2184 361.169C31.2184 362.413 31.919 362.257 33.9331 362.257H41.127" stroke="#3C559E" stroke-width="2" stroke-linecap="round"/>
<path d="M45.6064 359.663C45.6064 357.773 47.1384 356.241 49.0283 356.241H56.5723C58.4621 356.241 59.9941 357.773 59.9941 359.663V359.663C59.9941 361.553 58.4621 363.085 56.5723 363.085H49.0283C47.1384 363.085 45.6064 361.553 45.6064 359.663V359.663Z" fill="#DBDBDB"/>
<path d="M54.9722 357.062C58.094 357.062 59.1799 356.788 59.1799 358.978" stroke="white" stroke-width="2" stroke-linecap="round"/>
<path d="M46.4211 361.169C46.4211 362.413 47.1216 362.257 49.1357 362.257H56.3296" stroke="#3C559E" stroke-width="2" stroke-linecap="round"/>
<rect x="60.8086" y="356.241" width="14.3877" height="6.84362" rx="3.42181" fill="#E2E2E2"/>
<path d="M70.1743 357.062C73.2962 357.062 74.382 356.788 74.382 358.978" stroke="white" stroke-width="2" stroke-linecap="round"/>
<path d="M61.6232 361.169C61.6232 362.413 62.3238 362.257 64.3379 362.257H71.5317" stroke="#3C559E" stroke-width="2" stroke-linecap="round"/>
<path d="M76.0103 359.663C76.0103 357.773 77.5422 356.241 79.4321 356.241H86.9761C88.866 356.241 90.3979 357.773 90.3979 359.663V359.663C90.3979 361.553 88.866 363.085 86.9761 363.085H79.4321C77.5422 363.085 76.0103 361.553 76.0103 359.663V359.663Z" fill="#DBDBDB"/>
<path d="M85.376 357.062C88.4978 357.062 89.5837 356.788 89.5837 358.978" stroke="white" stroke-width="2" stroke-linecap="round"/>
<path d="M76.8249 361.169C76.8249 362.413 77.5254 362.257 79.5396 362.257H86.7334" stroke="#3C559E" stroke-width="2" stroke-linecap="round"/>
<rect x="91.2124" y="356.241" width="14.3877" height="6.84362" rx="3.42181" fill="#E2E2E2"/>
<path d="M100.578 357.062C103.7 357.062 104.786 356.788 104.786 358.978" stroke="white" stroke-width="2" stroke-linecap="round"/>
<path d="M92.027 361.169C92.027 362.413 92.7276 362.257 94.7417 362.257H101.936" stroke="#3C559E" stroke-width="2" stroke-linecap="round"/>
<path d="M106.415 359.663C106.415 357.773 107.947 356.241 109.836 356.241H117.38C119.27 356.241 120.802 357.773 120.802 359.663V359.663C120.802 361.553 119.27 363.085 117.38 363.085H109.836C107.947 363.085 106.415 361.553 106.415 359.663V359.663Z" fill="#DBDBDB"/>
<path d="M115.78 357.062C118.902 357.062 119.988 356.788 119.988 358.978" stroke="white" stroke-width="2" stroke-linecap="round"/>
<path d="M107.229 361.169C107.229 362.413 107.93 362.257 109.944 362.257H117.138" stroke="#3C559E" stroke-width="2" stroke-linecap="round"/>
<rect x="121.617" y="356.241" width="14.3877" height="6.84362" rx="3.42181" fill="#E2E2E2"/>
<path d="M130.982 357.062C134.104 357.062 135.19 356.788 135.19 358.978" stroke="white" stroke-width="2" stroke-linecap="round"/>
<path d="M122.431 361.169C122.431 362.413 123.132 362.257 125.146 362.257H132.34" stroke="#3C559E" stroke-width="2" stroke-linecap="round"/>
<path d="M136.819 359.663C136.819 357.773 138.351 356.241 140.241 356.241H147.785C149.675 356.241 151.207 357.773 151.207 359.663V359.663C151.207 361.553 149.675 363.085 147.785 363.085H140.241C138.351 363.085 136.819 361.553 136.819 359.663V359.663Z" fill="#DBDBDB"/>
<path d="M146.185 357.062C149.306 357.062 150.392 356.788 150.392 358.978" stroke="white" stroke-width="2" stroke-linecap="round"/>
<path d="M137.633 361.169C137.633 362.413 138.334 362.257 140.348 362.257H147.542" stroke="#3C559E" stroke-width="2" stroke-linecap="round"/>
<rect x="152.021" y="356.241" width="14.3877" height="6.84362" rx="3.42181" fill="#E2E2E2"/>
<path d="M161.387 357.062C164.509 357.062 165.594 356.788 165.594 358.978" stroke="white" stroke-width="2" stroke-linecap="round"/>
<path d="M152.836 361.169C152.836 362.413 153.536 362.257 155.55 362.257H162.744" stroke="#3C559E" stroke-width="2" stroke-linecap="round"/>
<path d="M167.223 359.663C167.223 357.773 168.755 356.241 170.644 356.241H178.189C180.078 356.241 181.61 357.773 181.61 359.663V359.663C181.61 361.553 180.078 363.085 178.189 363.085H170.644C168.755 363.085 167.223 361.553 167.223 359.663V359.663Z" fill="#DBDBDB"/>
<path d="M176.588 357.062C179.71 357.062 180.796 356.788 180.796 358.978" stroke="white" stroke-width="2" stroke-linecap="round"/>
<path d="M168.037 361.169C168.037 362.413 168.738 362.257 170.752 362.257H177.946" stroke="#3C559E" stroke-width="2" stroke-linecap="round"/>
<rect x="182.425" y="356.241" width="14.3877" height="6.84362" rx="3.42181" fill="#E2E2E2"/>
<path d="M191.791 357.062C194.912 357.062 195.998 356.788 195.998 358.978" stroke="white" stroke-width="2" stroke-linecap="round"/>
<path d="M183.239 361.169C183.239 362.413 183.94 362.257 185.954 362.257H193.148" stroke="#3C559E" stroke-width="2" stroke-linecap="round"/>
<path d="M197.627 359.663C197.627 357.773 199.159 356.241 201.049 356.241H208.593C210.483 356.241 212.015 357.773 212.015 359.663V359.663C212.015 361.553 210.483 363.085 208.593 363.085H201.049C199.159 363.085 197.627 361.553 197.627 359.663V359.663Z" fill="#DBDBDB"/>
<path d="M206.993 357.062C210.115 357.062 211.2 356.788 211.2 358.978" stroke="white" stroke-width="2" stroke-linecap="round"/>
<path d="M198.442 361.169C198.442 362.413 199.142 362.257 201.156 362.257H208.35" stroke="#3C559E" stroke-width="2" stroke-linecap="round"/>
<rect x="212.83" y="356.241" width="14.3877" height="6.84362" rx="3.42181" fill="#E2E2E2"/>
<path d="M222.195 357.062C225.317 357.062 226.403 356.788 226.403 358.978" stroke="white" stroke-width="2" stroke-linecap="round"/>
<path d="M213.644 361.169C213.644 362.413 214.345 362.257 216.359 362.257H223.553" stroke="#3C559E" stroke-width="2" stroke-linecap="round"/>
<path d="M228.031 359.663C228.031 357.773 229.563 356.241 231.453 356.241H238.997C240.887 356.241 242.419 357.773 242.419 359.663V359.663C242.419 361.553 240.887 363.085 238.997 363.085H231.453C229.563 363.085 228.031 361.553 228.031 359.663V359.663Z" fill="#DBDBDB"/>
<path d="M237.397 357.062C240.519 357.062 241.605 356.788 241.605 358.978" stroke="white" stroke-width="2" stroke-linecap="round"/>
<path d="M228.846 361.169C228.846 362.413 229.546 362.257 231.561 362.257H238.754" stroke="#3C559E" stroke-width="2" stroke-linecap="round"/>
<rect x="243.233" y="356.241" width="14.3877" height="6.84362" rx="3.42181" fill="#E2E2E2"/>
<path d="M252.599 357.062C255.721 357.062 256.807 356.788 256.807 358.978" stroke="white" stroke-width="2" stroke-linecap="round"/>
<path d="M244.048 361.169C244.048 362.413 244.749 362.257 246.763 362.257H253.957" stroke="#3C559E" stroke-width="2" stroke-linecap="round"/>
<path d="M258.436 359.663C258.436 357.773 259.968 356.241 261.857 356.241H269.401C271.291 356.241 272.823 357.773 272.823 359.663V359.663C272.823 361.553 271.291 363.085 269.401 363.085H261.857C259.968 363.085 258.436 361.553 258.436 359.663V359.663Z" fill="#DBDBDB"/>
<path d="M267.801 357.062C270.923 357.062 272.009 356.788 272.009 358.978" stroke="white" stroke-width="2" stroke-linecap="round"/>
<path d="M259.25 361.169C259.25 362.413 259.951 362.257 261.965 362.257H269.159" stroke="#3C559E" stroke-width="2" stroke-linecap="round"/>
<rect x="273.638" y="356.241" width="14.3877" height="6.84362" rx="3.42181" fill="#E2E2E2"/>
<path d="M283.003 357.062C286.125 357.062 287.211 356.788 287.211 358.978" stroke="white" stroke-width="2" stroke-linecap="round"/>
<path d="M274.452 361.169C274.452 362.413 275.153 362.257 277.167 362.257H284.361" stroke="#3C559E" stroke-width="2" stroke-linecap="round"/>
<path d="M288.84 359.663C288.84 357.773 290.372 356.241 292.262 356.241H299.806C301.696 356.241 303.228 357.773 303.228 359.663V359.663C303.228 361.553 301.696 363.085 299.806 363.085H292.262C290.372 363.085 288.84 361.553 288.84 359.663V359.663Z" fill="#DBDBDB"/>
<path d="M298.206 357.062C301.327 357.062 302.413 356.788 302.413 358.978" stroke="white" stroke-width="2" stroke-linecap="round"/>
<path d="M289.654 361.169C289.654 362.413 290.355 362.257 292.369 362.257H299.563" stroke="#3C559E" stroke-width="2" stroke-linecap="round"/>
<rect x="304.042" y="356.241" width="14.3877" height="6.84362" rx="3.42181" fill="#E2E2E2"/>
<path d="M313.408 357.062C316.53 357.062 317.616 356.788 317.616 358.978" stroke="white" stroke-width="2" stroke-linecap="round"/>
<path d="M304.857 361.169C304.857 362.413 305.558 362.257 307.572 362.257H314.766" stroke="#3C559E" stroke-width="2" stroke-linecap="round"/>
<path d="M319.244 359.663C319.244 357.773 320.776 356.241 322.665 356.241H330.21C332.099 356.241 333.631 357.773 333.631 359.663V359.663C333.631 361.553 332.099 363.085 330.21 363.085H322.665C320.776 363.085 319.244 361.553 319.244 359.663V359.663Z" fill="#DBDBDB"/>
<path d="M328.609 357.062C331.731 357.062 332.817 356.788 332.817 358.978" stroke="white" stroke-width="2" stroke-linecap="round"/>
<path d="M320.058 361.169C320.058 362.413 320.759 362.257 322.773 362.257H329.967" stroke="#3C559E" stroke-width="2" stroke-linecap="round"/>
<rect x="334.446" y="356.241" width="14.3877" height="6.84362" rx="3.42181" fill="#E2E2E2"/>
<path d="M343.812 357.062C346.934 357.062 348.02 356.788 348.02 358.978" stroke="white" stroke-width="2" stroke-linecap="round"/>
<path d="M335.261 361.169C335.261 362.413 335.961 362.257 337.976 362.257H345.169" stroke="#3C559E" stroke-width="2" stroke-linecap="round"/>
<path d="M349.648 359.663C349.648 357.773 351.18 356.241 353.07 356.241H360.614C362.504 356.241 364.036 357.773 364.036 359.663V359.663C364.036 361.553 362.504 363.085 360.614 363.085H353.07C351.18 363.085 349.648 361.553 349.648 359.663V359.663Z" fill="#DBDBDB"/>
<path d="M359.014 357.062C362.136 357.062 363.222 356.788 363.222 358.978" stroke="white" stroke-width="2" stroke-linecap="round"/>
<path d="M350.463 361.169C350.463 362.413 351.164 362.257 353.178 362.257H360.372" stroke="#3C559E" stroke-width="2" stroke-linecap="round"/>
<rect x="364.85" y="356.241" width="14.3877" height="6.84362" rx="3.42181" fill="#E2E2E2"/>
<path d="M374.216 357.062C377.338 357.062 378.424 356.788 378.424 358.978" stroke="white" stroke-width="2" stroke-linecap="round"/>
<path d="M365.665 361.169C365.665 362.413 366.365 362.257 368.379 362.257H375.573" stroke="#3C559E" stroke-width="2" stroke-linecap="round"/>
<path d="M380.052 359.663C380.052 357.773 381.584 356.241 383.474 356.241H391.018C392.907 356.241 394.439 357.773 394.439 359.663V359.663C394.439 361.553 392.907 363.085 391.018 363.085H383.474C381.584 363.085 380.052 361.553 380.052 359.663V359.663Z" fill="#DBDBDB"/>
<path d="M389.417 357.062C392.539 357.062 393.625 356.788 393.625 358.978" stroke="white" stroke-width="2" stroke-linecap="round"/>
<path d="M380.866 361.169C380.866 362.413 381.567 362.257 383.581 362.257H390.775" stroke="#3C559E" stroke-width="2" stroke-linecap="round"/>
<rect x="395.255" y="356.241" width="14.3877" height="6.84362" rx="3.42181" fill="#E2E2E2"/>
<path d="M404.621 357.062C407.742 357.062 408.828 356.788 408.828 358.978" stroke="white" stroke-width="2" stroke-linecap="round"/>
<path d="M396.07 361.169C396.07 362.413 396.77 362.257 398.784 362.257H405.978" stroke="#3C559E" stroke-width="2" stroke-linecap="round"/>
<path d="M410.456 359.663C410.456 357.773 411.988 356.241 413.878 356.241H421.422C423.312 356.241 424.844 357.773 424.844 359.663V359.663C424.844 361.553 423.312 363.085 421.422 363.085H413.878C411.988 363.085 410.456 361.553 410.456 359.663V359.663Z" fill="#DBDBDB"/>
<path d="M419.822 357.062C422.944 357.062 424.03 356.788 424.03 358.978" stroke="white" stroke-width="2" stroke-linecap="round"/>
<path d="M411.271 361.169C411.271 362.413 411.971 362.257 413.985 362.257H421.179" stroke="#3C559E" stroke-width="2" stroke-linecap="round"/>
<path d="M469.756 295.624C470.954 290.914 481.097 289.245 486.018 289C496.289 289 503.35 299.01 500.141 309.021C497.573 317.029 488.229 319.325 483.879 319.473C463.551 311.229 468.258 301.513 469.756 295.624Z" fill="#94B15F"/>
<path d="M484.814 305.37L484.814 360.019" stroke="#3C559E" stroke-linecap="round"/>
<path d="M484.689 314.31C483.191 314.1 480.194 312.698 480.194 308.77" stroke="#3C559E" stroke-linecap="round"/>
<path d="M494.679 294.918C496.053 295.925 500.049 300.584 498.425 307.762" stroke="white" stroke-width="2" stroke-linecap="round"/>
<path d="M704.661 295.624C703.463 290.914 693.32 289.245 688.399 289C678.128 289 671.067 299.01 674.276 309.021C676.844 317.029 686.188 319.325 690.538 319.473C710.866 311.229 706.159 301.513 704.661 295.624Z" fill="#94B15F"/>
<path d="M690.103 305.37L690.103 360.019" stroke="#3C559E" stroke-linecap="round"/>
<path d="M689.977 314.31C688.479 314.101 685.482 312.699 685.482 308.77" stroke="#3C559E" stroke-linecap="round"/>
<path d="M699.218 293.785C700.592 294.793 704.588 299.452 702.964 306.629" stroke="white" stroke-width="2" stroke-linecap="round"/>
<path d="M601.018 298.253C599.82 291.673 589.677 289.343 584.756 289C574.485 289 567.424 302.982 570.633 316.963C573.201 328.148 582.545 331.356 586.895 331.561C607.223 320.047 602.516 306.477 601.018 298.253Z" fill="#94B15F"/>
<path d="M595.575 295.296C596.948 296.703 600.944 303.211 599.321 313.235" stroke="white" stroke-width="2" stroke-linecap="round"/>
<path d="M586.459 305.37L586.459 360.019" stroke="#3C559E" stroke-linecap="round"/>
<path d="M586.21 315.066C584.837 315.107 582.089 313.907 582.089 308.77" stroke="#3C559E" stroke-linecap="round"/>
<path d="M586.459 322.368C588.915 321.781 593.677 318.692 593.078 311.036" stroke="#3C559E" stroke-linecap="round"/>
<path d="M776.69 298.252C777.889 291.673 788.031 289.343 792.952 289C803.223 289 810.284 302.981 807.075 316.963C804.507 328.148 795.163 331.355 790.813 331.561C770.485 320.047 775.192 306.477 776.69 298.252Z" fill="#94B15F"/>
<path d="M800.864 295.296C802.237 296.703 806.233 303.21 804.61 313.235" stroke="white" stroke-width="2" stroke-linecap="round"/>
<path d="M791.749 305.37L791.749 360.019" stroke="#3C559E" stroke-linecap="round"/>
<path d="M791.499 315.066C790.125 315.107 787.378 313.907 787.378 308.77" stroke="#3C559E" stroke-linecap="round"/>
<path d="M791.749 322.368C794.204 321.781 798.966 318.692 798.367 311.036" stroke="#3C559E" stroke-linecap="round"/>
<path fill-rule="evenodd" clip-rule="evenodd" d="M483.178 360.524C483.178 360.524 483.178 360.524 483.178 360.523H440.945C440.945 360.524 440.945 360.524 440.945 360.524H426.82C426.295 359.757 426 358.894 426 357.98C426 355.304 428.529 353.057 431.946 352.431C431.769 351.76 431.675 351.064 431.675 350.349C431.675 345.081 436.757 340.81 443.026 340.81C445.36 340.81 447.529 341.402 449.332 342.417L449.332 342.4C449.332 339.415 451.45 336.995 454.062 336.995C455.787 336.995 457.297 338.051 458.123 339.629C459.875 336.926 463.329 335.087 467.304 335.087C472.855 335.087 477.391 338.674 477.693 343.192C478.895 341.749 480.855 340.81 483.069 340.81C486.726 340.81 489.69 343.373 489.69 346.533C489.69 346.581 489.69 346.628 489.688 346.675C490.201 346.582 490.729 346.534 491.267 346.534C496.317 346.534 500.411 350.804 500.411 356.072C500.411 357.68 500.029 359.195 499.356 360.524H483.178Z" fill="#85A771"/>
<path d="M468.332 336.095C470.704 336.347 475.649 338.034 476.448 342.768" stroke="white" stroke-width="2" stroke-linecap="round"/>
<path d="M483.94 341.635C485.439 341.971 488.511 343.473 488.81 346.797" stroke="white" stroke-width="2" stroke-linecap="round"/>
<path d="M495.054 348.812C496.469 349.484 499.3 351.96 499.3 356.494" stroke="white" stroke-width="2" stroke-linecap="round"/>
<path fill-rule="evenodd" clip-rule="evenodd" d="M534.139 360.524C534.139 360.524 534.139 360.524 534.139 360.523H576.372C576.372 360.524 576.372 360.524 576.372 360.524H590.498C591.022 359.757 591.317 358.894 591.317 357.98C591.317 355.304 588.788 353.057 585.37 352.43C585.548 351.76 585.642 351.064 585.642 350.349C585.642 345.081 580.56 340.81 574.291 340.81C571.958 340.81 569.789 341.402 567.985 342.416L567.985 342.4C567.985 339.415 565.868 336.995 563.256 336.995C561.53 336.995 560.02 338.051 559.194 339.629C557.442 336.926 553.988 335.087 550.013 335.087C544.462 335.087 539.926 338.674 539.624 343.192C538.422 341.749 536.462 340.81 534.248 340.81C530.591 340.81 527.627 343.373 527.627 346.533C527.627 346.581 527.628 346.628 527.629 346.675C527.116 346.582 526.588 346.534 526.05 346.534C521 346.534 516.906 350.804 516.906 356.072C516.906 357.68 517.288 359.195 517.961 360.524H534.139Z" fill="#85A771"/>
<path d="M563.358 338.11C564.38 338.281 566.511 339.427 566.855 342.643" stroke="white" stroke-width="2" stroke-linecap="round"/>
<path d="M575.846 342.139C578.382 342.597 583.58 344.65 584.087 349.19" stroke="white" stroke-width="2" stroke-linecap="round"/>
<path d="M585.585 353.724C587.084 354.098 590.081 355.478 590.081 358.005" stroke="white" stroke-width="2" stroke-linecap="round"/>
<path fill-rule="evenodd" clip-rule="evenodd" d="M710.108 360.523C710.108 360.523 710.108 360.523 710.108 360.522H747.811C747.811 360.523 747.811 360.523 747.811 360.523H760.423C760.891 359.839 761.154 359.068 761.154 358.252C761.154 355.863 758.896 353.857 755.846 353.298C756.004 352.7 756.088 352.078 756.088 351.44C756.088 346.737 751.551 342.924 745.954 342.924C743.871 342.924 741.934 343.452 740.324 344.358L740.324 344.343C740.324 341.678 738.434 339.517 736.102 339.517C734.561 339.517 733.213 340.46 732.476 341.869C730.911 339.456 727.827 337.814 724.279 337.814C719.323 337.814 715.274 341.017 715.004 345.05C713.931 343.762 712.181 342.924 710.205 342.924C706.94 342.924 704.293 345.211 704.293 348.033C704.293 348.076 704.294 348.118 704.295 348.16C703.837 348.077 703.367 348.033 702.886 348.033C698.378 348.033 694.723 351.846 694.723 356.549C694.723 357.984 695.063 359.336 695.664 360.523H710.108Z" fill="#85A771"/>
<path d="M736.194 340.512C737.106 340.665 739.008 341.688 739.315 344.559" stroke="white" stroke-width="2" stroke-linecap="round"/>
<path d="M747.342 344.109C749.606 344.519 754.247 346.351 754.7 350.405" stroke="white" stroke-width="2" stroke-linecap="round"/>
<path d="M756.038 354.452C757.375 354.786 760.051 356.018 760.051 358.274" stroke="white" stroke-width="2" stroke-linecap="round"/>
<path fill-rule="evenodd" clip-rule="evenodd" d="M668.487 360.524C668.487 360.524 668.487 360.524 668.487 360.523H626.255C626.255 360.524 626.254 360.524 626.254 360.524H612.129C611.604 359.757 611.309 358.894 611.309 357.98C611.309 355.304 613.838 353.057 617.256 352.431C617.078 351.76 616.984 351.064 616.984 350.349C616.984 345.081 622.066 340.81 628.335 340.81C630.668 340.81 632.837 341.402 634.641 342.416L634.641 342.4C634.641 339.415 636.758 336.995 639.37 336.995C641.096 336.995 642.606 338.051 643.432 339.629C645.184 336.926 648.638 335.087 652.613 335.087C658.164 335.087 662.7 338.674 663.002 343.191C664.204 341.749 666.164 340.81 668.378 340.81C672.035 340.81 674.999 343.373 674.999 346.533C674.999 346.581 674.998 346.628 674.997 346.675C675.51 346.582 676.037 346.534 676.576 346.534C681.626 346.534 685.719 350.804 685.719 356.072C685.719 357.68 685.338 359.195 684.665 360.524H668.487Z" fill="#85A771"/>
<path d="M653.64 336.095C656.013 336.347 660.958 338.034 661.757 342.768" stroke="white" stroke-width="2" stroke-linecap="round"/>
<path d="M669.25 341.635C670.748 341.971 673.82 343.473 674.119 346.797" stroke="white" stroke-width="2" stroke-linecap="round"/>
<path d="M680.363 348.812C681.778 349.484 684.609 351.96 684.609 356.494" stroke="white" stroke-width="2" stroke-linecap="round"/>
<path fill-rule="evenodd" clip-rule="evenodd" d="M825.075 360.524C825.075 360.524 825.075 360.524 825.075 360.523H782.843C782.843 360.524 782.843 360.524 782.843 360.524H768.717C768.192 359.757 767.897 358.894 767.897 357.98C767.897 355.304 770.426 353.057 773.843 352.431C773.666 351.761 773.572 351.064 773.572 350.349C773.572 345.081 778.654 340.81 784.923 340.81C787.257 340.81 789.426 341.402 791.23 342.417L791.23 342.4C791.23 339.415 793.347 336.995 795.959 336.995C797.685 336.995 799.195 338.051 800.021 339.629C801.773 336.926 805.227 335.087 809.202 335.087C814.753 335.087 819.289 338.674 819.591 343.192C820.793 341.75 822.753 340.81 824.967 340.81C828.624 340.81 831.588 343.373 831.588 346.533C831.588 346.581 831.587 346.628 831.586 346.675C832.099 346.582 832.626 346.534 833.164 346.534C838.214 346.534 842.308 350.804 842.308 356.072C842.308 357.68 841.927 359.195 841.253 360.524H825.075Z" fill="#85A771"/>
<path d="M810.229 336.095C812.602 336.347 817.546 338.034 818.346 342.768" stroke="white" stroke-width="2" stroke-linecap="round"/>
<path d="M825.838 341.635C827.336 341.971 830.408 343.473 830.708 346.797" stroke="white" stroke-width="2" stroke-linecap="round"/>
<path d="M836.952 348.812C838.367 349.484 841.197 351.96 841.197 356.494" stroke="white" stroke-width="2" stroke-linecap="round"/>
<path d="M489.222 354.658C489.741 357.786 493.764 359.871 495.71 360.523H520.367C521.016 357.395 512.581 342.148 509.336 342.929C506.741 343.555 509.12 349.445 510.634 352.312C506.525 346.448 497.787 335.579 495.71 339.02C493.634 342.46 500.469 349.315 504.145 352.312C500.685 349.967 493.374 345.51 491.817 346.448C490.26 347.386 494.196 352.312 496.359 354.658C493.764 353.355 488.703 351.531 489.222 354.658Z" fill="#ACC57F"/>
<path d="M496.427 339.998C498.175 338.865 503.795 344.657 509.414 352.464" stroke="white" stroke-width="2" stroke-linecap="round"/>
<path d="M509.289 344.154C510.413 343.944 513.809 346.269 518.405 357.249" stroke="white" stroke-width="2" stroke-linecap="round"/>
<path d="M674.532 354.658C675.051 357.786 679.074 359.871 681.02 360.523H705.677C706.326 357.395 697.891 342.148 694.646 342.929C692.051 343.555 694.43 349.445 695.944 352.312C691.835 346.448 683.097 335.579 681.02 339.02C678.944 342.46 685.779 349.315 689.455 352.312C685.995 349.967 678.684 345.51 677.127 346.448C675.57 347.386 679.506 352.312 681.669 354.658C679.074 353.355 674.013 351.531 674.532 354.658Z" fill="#ACC57F"/>
<path d="M681.736 339.998C683.485 338.865 689.104 344.657 694.723 352.464" stroke="white" stroke-width="2" stroke-linecap="round"/>
<path d="M694.599 344.154C695.722 343.944 699.119 346.269 703.714 357.249" stroke="white" stroke-width="2" stroke-linecap="round"/>
<path d="M452.499 356.924C452.873 358.843 455.77 360.123 457.171 360.523H474.924C475.391 358.603 469.318 349.247 466.982 349.727C465.113 350.111 466.826 353.725 467.916 355.485C464.957 351.886 458.666 345.216 457.171 347.328C455.676 349.439 460.597 353.645 463.244 355.485C460.753 354.045 455.489 351.31 454.368 351.886C453.247 352.462 456.081 355.485 457.638 356.924C455.77 356.124 452.126 355.005 452.499 356.924Z" fill="#ACC57F"/>
<path d="M457.687 347.928C458.946 347.232 462.992 350.787 467.037 355.578" stroke="white" stroke-width="2" stroke-linecap="round"/>
<path d="M466.948 350.478C467.757 350.349 470.202 351.776 473.511 358.514" stroke="white" stroke-width="2" stroke-linecap="round"/>
<path d="M639.306 356.924C639.68 358.843 642.577 360.123 643.978 360.523H661.731C662.198 358.603 656.125 349.247 653.789 349.727C651.92 350.111 653.633 353.725 654.723 355.485C651.765 351.886 645.473 345.216 643.978 347.328C642.483 349.439 647.404 353.645 650.052 355.485C647.56 354.045 642.296 351.31 641.175 351.886C640.054 352.462 642.888 355.485 644.445 356.924C642.577 356.124 638.933 355.005 639.306 356.924Z" fill="#ACC57F"/>
<path d="M644.495 347.928C645.754 347.232 649.8 350.787 653.845 355.578" stroke="white" stroke-width="2" stroke-linecap="round"/>
<path d="M653.755 350.478C654.564 350.349 657.01 351.776 660.318 358.514" stroke="white" stroke-width="2" stroke-linecap="round"/>
<path d="M750.197 356.324C750.633 358.563 754.012 360.056 755.648 360.523H776.359C776.904 358.283 769.819 347.368 767.093 347.927C764.913 348.375 766.912 352.592 768.184 354.645C764.732 350.446 757.392 342.665 755.648 345.128C753.903 347.591 759.645 352.499 762.733 354.645C759.826 352.965 753.685 349.775 752.377 350.446C751.069 351.118 754.376 354.645 756.193 356.324C754.012 355.391 749.761 354.085 750.197 356.324Z" fill="#ACC57F"/>
<path d="M756.25 345.828C757.718 345.017 762.438 349.164 767.158 354.753" stroke="white" stroke-width="2" stroke-linecap="round"/>
<path d="M767.054 348.803C767.998 348.653 770.851 350.317 774.711 358.178" stroke="white" stroke-width="2" stroke-linecap="round"/>
<path d="M546.653 354.591C547.026 357.755 549.923 359.864 551.324 360.523H569.077C569.544 357.359 563.471 341.939 561.135 342.729C559.267 343.362 560.98 349.319 562.07 352.219C559.111 346.288 552.819 335.296 551.324 338.775C549.829 342.255 554.75 349.188 557.398 352.219C554.906 349.847 549.643 345.339 548.521 346.288C547.4 347.237 550.234 352.219 551.792 354.591C549.923 353.273 546.279 351.428 546.653 354.591Z" fill="#ACC57F"/>
<path d="M551.84 339.765C553.099 338.618 557.145 344.477 561.191 352.372" stroke="white" stroke-width="2" stroke-linecap="round"/>
<path d="M561.101 343.967C561.91 343.755 564.356 346.106 567.664 357.211" stroke="white" stroke-width="2" stroke-linecap="round"/>
<path d="M581.626 354.658C582.146 357.786 586.168 359.871 588.115 360.523H612.772C613.421 357.395 604.985 342.148 601.741 342.929C599.146 343.555 601.525 349.445 603.039 352.312C598.929 346.448 590.191 335.579 588.115 339.02C586.039 342.46 592.873 349.315 596.55 352.312C593.09 349.967 585.779 345.51 584.222 346.448C582.665 347.386 586.601 352.312 588.764 354.658C586.168 353.355 581.107 351.531 581.626 354.658Z" fill="#ACC57F"/>
<path d="M588.832 339.998C590.58 338.865 596.199 344.657 601.819 352.464" stroke="white" stroke-width="2" stroke-linecap="round"/>
<path d="M601.693 344.154C602.817 343.944 606.214 346.269 610.809 357.249" stroke="white" stroke-width="2" stroke-linecap="round"/>
<path d="M820.381 354.658C820.9 357.786 824.923 359.871 826.869 360.523H851.526C852.175 357.395 843.74 342.148 840.495 342.929C837.9 343.555 840.279 349.445 841.793 352.312C837.684 346.448 828.946 335.579 826.869 339.02C824.793 342.46 831.628 349.315 835.305 352.312C831.844 349.967 824.534 345.51 822.976 346.448C821.419 347.386 825.355 352.312 827.518 354.658C824.923 353.355 819.862 351.531 820.381 354.658Z" fill="#ACC57F"/>
<path d="M827.586 339.998C829.334 338.865 834.953 344.657 840.573 352.464" stroke="white" stroke-width="2" stroke-linecap="round"/>
<path d="M840.448 344.154C841.572 343.944 844.968 346.269 849.563 357.249" stroke="white" stroke-width="2" stroke-linecap="round"/>
<rect x="426" y="356.241" width="14.3877" height="6.84362" rx="3.42181" fill="#E2E2E2"/>
<path d="M435.366 357.062C438.488 357.062 439.573 356.788 439.573 358.978" stroke="white" stroke-width="2" stroke-linecap="round"/>
<path d="M426.815 361.169C426.815 362.413 427.515 362.257 429.529 362.257H436.723" stroke="#3C559E" stroke-width="2" stroke-linecap="round"/>
<path d="M441.202 359.663C441.202 357.773 442.734 356.241 444.624 356.241H452.168C454.058 356.241 455.59 357.773 455.59 359.663V359.663C455.59 361.553 454.058 363.085 452.168 363.085H444.624C442.734 363.085 441.202 361.553 441.202 359.663V359.663Z" fill="#DBDBDB"/>
<path d="M450.568 357.062C453.69 357.062 454.776 356.788 454.776 358.978" stroke="white" stroke-width="2" stroke-linecap="round"/>
<path d="M442.017 361.169C442.017 362.413 442.717 362.257 444.731 362.257H451.925" stroke="#3C559E" stroke-width="2" stroke-linecap="round"/>
<rect x="456.404" y="356.241" width="14.3877" height="6.84362" rx="3.42181" fill="#E2E2E2"/>
<path d="M465.77 357.062C468.891 357.062 469.977 356.788 469.977 358.978" stroke="white" stroke-width="2" stroke-linecap="round"/>
<path d="M457.218 361.169C457.218 362.413 457.919 362.257 459.933 362.257H467.127" stroke="#3C559E" stroke-width="2" stroke-linecap="round"/>
<path d="M471.606 359.663C471.606 357.773 473.138 356.241 475.028 356.241H482.572C484.462 356.241 485.994 357.773 485.994 359.663V359.663C485.994 361.553 484.462 363.085 482.572 363.085H475.028C473.138 363.085 471.606 361.553 471.606 359.663V359.663Z" fill="#DBDBDB"/>
<path d="M480.972 357.062C484.094 357.062 485.18 356.788 485.18 358.978" stroke="white" stroke-width="2" stroke-linecap="round"/>
<path d="M472.421 361.169C472.421 362.413 473.122 362.257 475.136 362.257H482.33" stroke="#3C559E" stroke-width="2" stroke-linecap="round"/>
<rect x="486.809" y="356.241" width="14.3877" height="6.84362" rx="3.42181" fill="#E2E2E2"/>
<path d="M496.174 357.062C499.296 357.062 500.382 356.788 500.382 358.978" stroke="white" stroke-width="2" stroke-linecap="round"/>
<path d="M487.623 361.169C487.623 362.413 488.324 362.257 490.338 362.257H497.532" stroke="#3C559E" stroke-width="2" stroke-linecap="round"/>
<path d="M502.01 359.663C502.01 357.773 503.542 356.241 505.432 356.241H512.976C514.866 356.241 516.398 357.773 516.398 359.663V359.663C516.398 361.553 514.866 363.085 512.976 363.085H505.432C503.542 363.085 502.01 361.553 502.01 359.663V359.663Z" fill="#DBDBDB"/>
<path d="M511.376 357.062C514.498 357.062 515.584 356.788 515.584 358.978" stroke="white" stroke-width="2" stroke-linecap="round"/>
<path d="M502.825 361.169C502.825 362.413 503.525 362.257 505.54 362.257H512.733" stroke="#3C559E" stroke-width="2" stroke-linecap="round"/>
<rect x="517.212" y="356.241" width="14.3877" height="6.84362" rx="3.42181" fill="#E2E2E2"/>
<path d="M526.578 357.062C529.7 357.062 530.786 356.788 530.786 358.978" stroke="white" stroke-width="2" stroke-linecap="round"/>
<path d="M518.027 361.169C518.027 362.413 518.728 362.257 520.742 362.257H527.936" stroke="#3C559E" stroke-width="2" stroke-linecap="round"/>
<path d="M532.415 359.663C532.415 357.773 533.947 356.241 535.836 356.241H543.38C545.27 356.241 546.802 357.773 546.802 359.663V359.663C546.802 361.553 545.27 363.085 543.38 363.085H535.836C533.947 363.085 532.415 361.553 532.415 359.663V359.663Z" fill="#DBDBDB"/>
<path d="M541.78 357.062C544.902 357.062 545.988 356.788 545.988 358.978" stroke="white" stroke-width="2" stroke-linecap="round"/>
<path d="M533.229 361.169C533.229 362.413 533.93 362.257 535.944 362.257H543.138" stroke="#3C559E" stroke-width="2" stroke-linecap="round"/>
<rect x="547.617" y="356.241" width="14.3877" height="6.84362" rx="3.42181" fill="#E2E2E2"/>
<path d="M556.982 357.062C560.104 357.062 561.19 356.788 561.19 358.978" stroke="white" stroke-width="2" stroke-linecap="round"/>
<path d="M548.431 361.169C548.431 362.413 549.132 362.257 551.146 362.257H558.34" stroke="#3C559E" stroke-width="2" stroke-linecap="round"/>
<path d="M562.819 359.663C562.819 357.773 564.351 356.241 566.241 356.241H573.785C575.675 356.241 577.207 357.773 577.207 359.663V359.663C577.207 361.553 575.675 363.085 573.785 363.085H566.241C564.351 363.085 562.819 361.553 562.819 359.663V359.663Z" fill="#DBDBDB"/>
<path d="M572.185 357.062C575.306 357.062 576.392 356.788 576.392 358.978" stroke="white" stroke-width="2" stroke-linecap="round"/>
<path d="M563.633 361.169C563.633 362.413 564.334 362.257 566.348 362.257H573.542" stroke="#3C559E" stroke-width="2" stroke-linecap="round"/>
<rect x="578.021" y="356.241" width="14.3877" height="6.84362" rx="3.42181" fill="#E2E2E2"/>
<path d="M587.387 357.062C590.509 357.062 591.594 356.788 591.594 358.978" stroke="white" stroke-width="2" stroke-linecap="round"/>
<path d="M578.836 361.169C578.836 362.413 579.536 362.257 581.55 362.257H588.744" stroke="#3C559E" stroke-width="2" stroke-linecap="round"/>
<path d="M593.223 359.663C593.223 357.773 594.755 356.241 596.644 356.241H604.189C606.078 356.241 607.61 357.773 607.61 359.663V359.663C607.61 361.553 606.078 363.085 604.189 363.085H596.644C594.755 363.085 593.223 361.553 593.223 359.663V359.663Z" fill="#DBDBDB"/>
<path d="M602.588 357.062C605.71 357.062 606.796 356.788 606.796 358.978" stroke="white" stroke-width="2" stroke-linecap="round"/>
<path d="M594.037 361.169C594.037 362.413 594.738 362.257 596.752 362.257H603.946" stroke="#3C559E" stroke-width="2" stroke-linecap="round"/>
<rect x="608.425" y="356.241" width="14.3877" height="6.84362" rx="3.42181" fill="#E2E2E2"/>
<path d="M617.791 357.062C620.912 357.062 621.998 356.788 621.998 358.978" stroke="white" stroke-width="2" stroke-linecap="round"/>
<path d="M609.239 361.169C609.239 362.413 609.94 362.257 611.954 362.257H619.148" stroke="#3C559E" stroke-width="2" stroke-linecap="round"/>
<path d="M623.627 359.663C623.627 357.773 625.159 356.241 627.049 356.241H634.593C636.483 356.241 638.015 357.773 638.015 359.663V359.663C638.015 361.553 636.483 363.085 634.593 363.085H627.049C625.159 363.085 623.627 361.553 623.627 359.663V359.663Z" fill="#DBDBDB"/>
<path d="M632.993 357.062C636.115 357.062 637.2 356.788 637.2 358.978" stroke="white" stroke-width="2" stroke-linecap="round"/>
<path d="M624.442 361.169C624.442 362.413 625.142 362.257 627.156 362.257H634.35" stroke="#3C559E" stroke-width="2" stroke-linecap="round"/>
<rect x="638.83" y="356.241" width="14.3877" height="6.84362" rx="3.42181" fill="#E2E2E2"/>
<path d="M648.195 357.062C651.317 357.062 652.403 356.788 652.403 358.978" stroke="white" stroke-width="2" stroke-linecap="round"/>
<path d="M639.644 361.169C639.644 362.413 640.345 362.257 642.359 362.257H649.553" stroke="#3C559E" stroke-width="2" stroke-linecap="round"/>
<path d="M654.031 359.663C654.031 357.773 655.563 356.241 657.453 356.241H664.997C666.887 356.241 668.419 357.773 668.419 359.663V359.663C668.419 361.553 666.887 363.085 664.997 363.085H657.453C655.563 363.085 654.031 361.553 654.031 359.663V359.663Z" fill="#DBDBDB"/>
<path d="M663.397 357.062C666.519 357.062 667.605 356.788 667.605 358.978" stroke="white" stroke-width="2" stroke-linecap="round"/>
<path d="M654.846 361.169C654.846 362.413 655.546 362.257 657.561 362.257H664.754" stroke="#3C559E" stroke-width="2" stroke-linecap="round"/>
<rect x="669.233" y="356.241" width="14.3877" height="6.84362" rx="3.42181" fill="#E2E2E2"/>
<path d="M678.599 357.062C681.721 357.062 682.807 356.788 682.807 358.978" stroke="white" stroke-width="2" stroke-linecap="round"/>
<path d="M670.048 361.169C670.048 362.413 670.749 362.257 672.763 362.257H679.957" stroke="#3C559E" stroke-width="2" stroke-linecap="round"/>
<path d="M684.436 359.663C684.436 357.773 685.968 356.241 687.857 356.241H695.401C697.291 356.241 698.823 357.773 698.823 359.663V359.663C698.823 361.553 697.291 363.085 695.401 363.085H687.857C685.968 363.085 684.436 361.553 684.436 359.663V359.663Z" fill="#DBDBDB"/>
<path d="M693.801 357.062C696.923 357.062 698.009 356.788 698.009 358.978" stroke="white" stroke-width="2" stroke-linecap="round"/>
<path d="M685.25 361.169C685.25 362.413 685.951 362.257 687.965 362.257H695.159" stroke="#3C559E" stroke-width="2" stroke-linecap="round"/>
<rect x="699.638" y="356.241" width="14.3877" height="6.84362" rx="3.42181" fill="#E2E2E2"/>
<path d="M709.003 357.062C712.125 357.062 713.211 356.788 713.211 358.978" stroke="white" stroke-width="2" stroke-linecap="round"/>
<path d="M700.452 361.169C700.452 362.413 701.153 362.257 703.167 362.257H710.361" stroke="#3C559E" stroke-width="2" stroke-linecap="round"/>
<path d="M714.84 359.663C714.84 357.773 716.372 356.241 718.262 356.241H725.806C727.696 356.241 729.228 357.773 729.228 359.663V359.663C729.228 361.553 727.696 363.085 725.806 363.085H718.262C716.372 363.085 714.84 361.553 714.84 359.663V359.663Z" fill="#DBDBDB"/>
<path d="M724.206 357.062C727.327 357.062 728.413 356.788 728.413 358.978" stroke="white" stroke-width="2" stroke-linecap="round"/>
<path d="M715.654 361.169C715.654 362.413 716.355 362.257 718.369 362.257H725.563" stroke="#3C559E" stroke-width="2" stroke-linecap="round"/>
<rect x="730.042" y="356.241" width="14.3877" height="6.84362" rx="3.42181" fill="#E2E2E2"/>
<path d="M739.408 357.062C742.53 357.062 743.616 356.788 743.616 358.978" stroke="white" stroke-width="2" stroke-linecap="round"/>
<path d="M730.857 361.169C730.857 362.413 731.558 362.257 733.572 362.257H740.766" stroke="#3C559E" stroke-width="2" stroke-linecap="round"/>
<path d="M745.244 359.663C745.244 357.773 746.776 356.241 748.665 356.241H756.21C758.099 356.241 759.631 357.773 759.631 359.663V359.663C759.631 361.553 758.099 363.085 756.21 363.085H748.665C746.776 363.085 745.244 361.553 745.244 359.663V359.663Z" fill="#DBDBDB"/>
<path d="M754.609 357.062C757.731 357.062 758.817 356.788 758.817 358.978" stroke="white" stroke-width="2" stroke-linecap="round"/>
<path d="M746.058 361.169C746.058 362.413 746.759 362.257 748.773 362.257H755.967" stroke="#3C559E" stroke-width="2" stroke-linecap="round"/>
<rect x="760.446" y="356.241" width="14.3877" height="6.84362" rx="3.42181" fill="#E2E2E2"/>
<path d="M769.812 357.062C772.934 357.062 774.02 356.788 774.02 358.978" stroke="white" stroke-width="2" stroke-linecap="round"/>
<path d="M761.261 361.169C761.261 362.413 761.961 362.257 763.976 362.257H771.169" stroke="#3C559E" stroke-width="2" stroke-linecap="round"/>
<path d="M775.648 359.663C775.648 357.773 777.18 356.241 779.07 356.241H786.614C788.504 356.241 790.036 357.773 790.036 359.663V359.663C790.036 361.553 788.504 363.085 786.614 363.085H779.07C777.18 363.085 775.648 361.553 775.648 359.663V359.663Z" fill="#DBDBDB"/>
<path d="M785.014 357.062C788.136 357.062 789.222 356.788 789.222 358.978" stroke="white" stroke-width="2" stroke-linecap="round"/>
<path d="M776.463 361.169C776.463 362.413 777.164 362.257 779.178 362.257H786.372" stroke="#3C559E" stroke-width="2" stroke-linecap="round"/>
<rect x="790.85" y="356.241" width="14.3877" height="6.84362" rx="3.42181" fill="#E2E2E2"/>
<path d="M800.216 357.062C803.338 357.062 804.424 356.788 804.424 358.978" stroke="white" stroke-width="2" stroke-linecap="round"/>
<path d="M791.665 361.169C791.665 362.413 792.365 362.257 794.379 362.257H801.573" stroke="#3C559E" stroke-width="2" stroke-linecap="round"/>
<path d="M806.052 359.663C806.052 357.773 807.584 356.241 809.474 356.241H817.018C818.907 356.241 820.439 357.773 820.439 359.663V359.663C820.439 361.553 818.907 363.085 817.018 363.085H809.474C807.584 363.085 806.052 361.553 806.052 359.663V359.663Z" fill="#DBDBDB"/>
<path d="M815.417 357.062C818.539 357.062 819.625 356.788 819.625 358.978" stroke="white" stroke-width="2" stroke-linecap="round"/>
<path d="M806.866 361.169C806.866 362.413 807.567 362.257 809.581 362.257H816.775" stroke="#3C559E" stroke-width="2" stroke-linecap="round"/>
<rect x="821.255" y="356.241" width="14.3877" height="6.84362" rx="3.42181" fill="#E2E2E2"/>
<path d="M830.621 357.062C833.742 357.062 834.828 356.788 834.828 358.978" stroke="white" stroke-width="2" stroke-linecap="round"/>
<path d="M822.07 361.169C822.07 362.413 822.77 362.257 824.784 362.257H831.978" stroke="#3C559E" stroke-width="2" stroke-linecap="round"/>
<path d="M836.456 359.663C836.456 357.773 837.988 356.241 839.878 356.241H847.422C849.312 356.241 850.844 357.773 850.844 359.663V359.663C850.844 361.553 849.312 363.085 847.422 363.085H839.878C837.988 363.085 836.456 361.553 836.456 359.663V359.663Z" fill="#DBDBDB"/>
<path d="M845.822 357.062C848.944 357.062 850.03 356.788 850.03 358.978" stroke="white" stroke-width="2" stroke-linecap="round"/>
<path d="M837.271 361.169C837.271 362.413 837.971 362.257 839.985 362.257H847.179" stroke="#3C559E" stroke-width="2" stroke-linecap="round"/>
</g>
<defs>
<clipPath id="clip0_2074_6065">
<rect width="393" height="852" fill="white" transform="matrix(0 -1 1 0 0 393)"/>
</clipPath>
</defs>
</svg>
